G04 #@! TF.FileFunction,Legend,Bot*
%FSLAX46Y46*%
G04 Gerber Fmt 4.6, Leading zero omitted, Abs format (unit mm)*
G04 Created by KiCad (PCBNEW 4.0.2+dfsg1-stable) date Mo 06 Nov 2017 22:22:18 CET*
%MOMM*%
G01*
G04 APERTURE LIST*
%ADD10C,1.000000*%
%ADD11C,0.150000*%
G04 APERTURE END LIST*
D10*
D11*
X133708691Y-76276762D02*
X133708691Y-74276762D01*
X132946786Y-74276762D01*
X132756310Y-74372000D01*
X132661071Y-74467238D01*
X132565833Y-74657714D01*
X132565833Y-74943429D01*
X132661071Y-75133905D01*
X132756310Y-75229143D01*
X132946786Y-75324381D01*
X133708691Y-75324381D01*
X131803929Y-74467238D02*
X131708691Y-74372000D01*
X131518214Y-74276762D01*
X131042024Y-74276762D01*
X130851548Y-74372000D01*
X130756310Y-74467238D01*
X130661071Y-74657714D01*
X130661071Y-74848190D01*
X130756310Y-75133905D01*
X131899167Y-76276762D01*
X130661071Y-76276762D01*
X133708691Y-110426762D02*
X133708691Y-108426762D01*
X132946786Y-108426762D01*
X132756310Y-108522000D01*
X132661071Y-108617238D01*
X132565833Y-108807714D01*
X132565833Y-109093429D01*
X132661071Y-109283905D01*
X132756310Y-109379143D01*
X132946786Y-109474381D01*
X133708691Y-109474381D01*
X130851548Y-109093429D02*
X130851548Y-110426762D01*
X131327738Y-108331524D02*
X131803929Y-109760095D01*
X130565833Y-109760095D01*
X108143691Y-114132762D02*
X108143691Y-112132762D01*
X107381786Y-112132762D01*
X107191310Y-112228000D01*
X107096071Y-112323238D01*
X107000833Y-112513714D01*
X107000833Y-112799429D01*
X107096071Y-112989905D01*
X107191310Y-113085143D01*
X107381786Y-113180381D01*
X108143691Y-113180381D01*
X105096071Y-114132762D02*
X106238929Y-114132762D01*
X105667500Y-114132762D02*
X105667500Y-112132762D01*
X105857976Y-112418476D01*
X106048452Y-112608952D01*
X106238929Y-112704190D01*
X133258691Y-93176762D02*
X133258691Y-91176762D01*
X132496786Y-91176762D01*
X132306310Y-91272000D01*
X132211071Y-91367238D01*
X132115833Y-91557714D01*
X132115833Y-91843429D01*
X132211071Y-92033905D01*
X132306310Y-92129143D01*
X132496786Y-92224381D01*
X133258691Y-92224381D01*
X131449167Y-91176762D02*
X130211071Y-91176762D01*
X130877738Y-91938667D01*
X130592024Y-91938667D01*
X130401548Y-92033905D01*
X130306310Y-92129143D01*
X130211071Y-92319619D01*
X130211071Y-92795810D01*
X130306310Y-92986286D01*
X130401548Y-93081524D01*
X130592024Y-93176762D01*
X131163452Y-93176762D01*
X131353929Y-93081524D01*
X131449167Y-92986286D01*
X134108691Y-128726762D02*
X134108691Y-126726762D01*
X133346786Y-126726762D01*
X133156310Y-126822000D01*
X133061071Y-126917238D01*
X132965833Y-127107714D01*
X132965833Y-127393429D01*
X133061071Y-127583905D01*
X133156310Y-127679143D01*
X133346786Y-127774381D01*
X134108691Y-127774381D01*
X131156310Y-126726762D02*
X132108691Y-126726762D01*
X132203929Y-127679143D01*
X132108691Y-127583905D01*
X131918214Y-127488667D01*
X131442024Y-127488667D01*
X131251548Y-127583905D01*
X131156310Y-127679143D01*
X131061071Y-127869619D01*
X131061071Y-128345810D01*
X131156310Y-128536286D01*
X131251548Y-128631524D01*
X131442024Y-128726762D01*
X131918214Y-128726762D01*
X132108691Y-128631524D01*
X132203929Y-128536286D01*
M02*
