M48
;DRILL file {KiCad 4.0.2+dfsg1-stable} date Mo 06 Nov 2017 22:22:21 CET
;FORMAT={-:-/ absolute / inch / decimal}
FMAT,2
INCH,TZ
T1C0.016
T2C0.018
%
G90
G05
M72
T1
X4.5295Y-4.4528
X4.5305Y-4.5394
X4.5778Y-4.4961
X4.5955Y-3.7539
X4.5984Y-4.1821
X4.5984Y-4.3701
X4.5994Y-3.9301
X4.6437Y-3.8002
X4.6437Y-4.2264
X4.6447Y-4.4124
X4.6476Y-3.9754
X4.6811Y-3.7559
X4.6841Y-4.1831
X4.686Y-4.3711
X4.688Y-3.9321
X4.7205Y-3.8504
X4.7205Y-4.1811
X4.8484Y-4.3386
X4.8809Y-4.3829
X4.9173Y-4.3406
T2
X4.2724Y-3.9654
X4.2724Y-4.3102
X5.1154Y-3.7803
X5.1154Y-4.1252
X5.1331Y-3.115
X5.1331Y-3.4598
X5.1331Y-4.4594
X5.1331Y-4.8043
X5.1488Y-5.1799
X5.1488Y-5.5248
T0
M30
